PathFileType	4	(X/Y/Z)	C:/Users/opensim2020/Desktop/walking_exp_matlab/subject03_walking15_straight_03.trc																																																																																																																																											
DataRate	CameraRate	NumFrames	NumMarkers	Units	OrigDataRate	OrigDataStartFrame	OrigNumFrames																																																																																																																																							
100	100	4	47	mm	100	1687	220																																																																																																																																							
Frame#	Time	LFHD			RFHD			LBHD			RBHD			C7			T10			CLAV			STRN			RBAK			LSHO			LUPA			LELB			LFRM			LWRA			LWRB			LFIN			RSHO			RUPA			RELB			RFRM			RWRA			RWRB			RFIN			LASI			RASI			LPSI			RPSI			LTHI			LKNE			LTIB			LANK			LHEE			LTOE			RTHI			RKNE			RTIB			RANK			RHEE			RTOE			*39			*40			*41			*42			*43			*44			*45			*46		
		X1	Y1	Z1	X2	Y2	Z2	X3	Y3	Z3	X4	Y4	Z4	X5	Y5	Z5	X6	Y6	Z6	X7	Y7	Z7	X8	Y8	Z8	X9	Y9	Z9	X10	Y10	Z10	X11	Y11	Z11	X12	Y12	Z12	X13	Y13	Z13	X14	Y14	Z14	X15	Y15	Z15	X16	Y16	Z16	X17	Y17	Z17	X18	Y18	Z18	X19	Y19	Z19	X20	Y20	Z20	X21	Y21	Z21	X22	Y22	Z22	X23	Y23	Z23	X24	Y24	Z24	X25	Y25	Z25	X26	Y26	Z26	X27	Y27	Z27	X28	Y28	Z28	X29	Y29	Z29	X30	Y30	Z30	X31	Y31	Z31	X32	Y32	Z32	X33	Y33	Z33	X34	Y34	Z34	X35	Y35	Z35	X36	Y36	Z36	X37	Y37	Z37	X38	Y38	Z38	X39	Y39	Z39	X40	Y40	Z40	X41	Y41	Z41	X42	Y42	Z42	X43	Y43	Z43	X44	Y44	Z44	X45	Y45	Z45	X46	Y46	Z46	X47	Y47	Z47
																																																																																																																																														
111	1.1	-55.16727	1615.80676	1336.52625	-53.82022	1625.85547	1469.58264	-170.32675	1546.15283	1347.06677	-164.35208	1556.48914	1477.39282	-170.79953	1391.74731	1403.38672	-175.80701	1082.2384	1402.354	-39.92397	1331.46521	1405.31042	20.86576	1171.16162	1400.25708	-202.80388	1211.6167	1496.03259	-88.00758	1365.03882	1247.06702	-125.46542	1169.69153	1175.62463	-144.89537	1047.47778	1162.82898	-159.32332	917.19867	1156.70801	-186.55009	796.69641	1181.47827	-201.16637	812.61407	1126.90869	-246.87758	735.1651	1142.5813	-95.79011	1349.24695	1565.06763	-75.82466	1134.23071	1648.32764	-42.68885	1029.42639	1668.69263	25.99473	912.93256	1673.62817	95.27364	842.55078	1639.24048	68.29118	823.12543	1681.58948	126.80993	778.55774	1674.11035	-2.6291	928.01544	1298.88867	-27.29018	919.35095	1531.41333	-170.43817	945.86536	1327.23022	-182.49678	954.12457	1477.2843	22.19503	636.75659	1246.87012	86.09668	477.33286	1294.77173	75.07793	278.0015	1289.39832	89.03169	68.66686	1327.05798	46.2893	34.79506	1360.61719	237.00806	38.71113	1364.69873	-130.82774	629.89044	1568.93152	-153.46576	450.10388	1541.74426	-298.18927	315.25049	1533.59241	-443.34189	158.71489	1479.49365	-490.12146	161.67723	1424.13513	-361.70404	36.04637	1462.82007	-148.33405	1660.20288	1389.13879	NaN	NaN	NaN	NaN	NaN	NaN	NaN	NaN	NaN	NaN	NaN	NaN	NaN	NaN	NaN	NaN	NaN	NaN	NaN	NaN	NaN
112	1.11	-42.0547	1616.60327	1336.29297	-40.92502	1626.37317	1469.35291	-157.08884	1546.85547	1346.40137	-151.48759	1556.97119	1476.81018	-157.3399	1392.35999	1402.1322	-161.1221	1082.56348	1401.68213	-26.5373	1332.29102	1404.96167	35.23819	1172.34863	1400.17102	-189.44411	1211.38672	1494.0448	-73.46584	1365.80981	1246.42712	-108.56965	1169.84314	1174.90808	-127.8691	1047.75244	1162.41418	-142.17111	917.44287	1156.45129	-169.2589	796.95154	1180.95789	-183.08655	812.93475	1125.92139	-230.07779	735.78687	1141.4585	-83.57755	1349.52075	1564.4397	-64.18366	1134.23596	1647.24939	-31.74717	1029.16431	1667.74353	36.18623	911.98035	1673.1781	105.3626	841.08124	1639.10718	77.43049	821.88348	1681.39722	135.52719	776.31708	1674.35217	12.76933	929.79016	1298.38074	-11.8758	919.60394	1530.18359	-154.78743	947.27649	1326.64392	-167.00711	953.87878	1476.92944	38.46068	639.16101	1246.87317	100.87955	479.01611	1296.09912	86.01981	278.36435	1288.00439	90.76295	68.96165	1327.63989	46.81908	35.21979	1360.4093	238.27946	37.49207	1366.59375	-110.65752	628.05627	1569.09277	-129.09789	447.98328	1544.0929	-277.9314	318.10071	1534.71509	-427.42914	166.8181	1479.69873	-472.04462	173.67821	1423.00562	-359.3302	36.05464	1461.95337	-135.42589	1660.60046	1389.00439	NaN	NaN	NaN	NaN	NaN	NaN	NaN	NaN	NaN	NaN	NaN	NaN	NaN	NaN	NaN	NaN	NaN	NaN	NaN	NaN	NaN
113	1.12	-29.04727	1617.27051	1336.46155	-28.17063	1626.88647	1469.16553	-144.01462	1547.55457	1345.91064	-138.61488	1557.40698	1476.34521	-143.70876	1392.9248	1401.07935	-146.74129	1082.9519	1401.14087	-13.04069	1333.13049	1404.66296	49.52048	1173.46399	1400.19666	-176.14244	1211.57068	1492.47241	-59.04417	1366.67456	1245.92908	-91.545	1170.31018	1174.22583	-110.41102	1048.42395	1162.06665	-123.75825	918.0033	1156.03467	-150.79315	797.22314	1180.58228	-163.74779	812.87408	1125.60803	-211.90356	736.01587	1140.87024	-71.21873	1350.09314	1563.78076	-52.46702	1134.50867	1646.19275	-20.61625	1029.22083	1666.80981	45.99563	911.19299	1672.84717	114.48894	839.20337	1639.08423	86.33051	820.68109	1681.40759	143.01175	773.59918	1674.0824	27.75809	931.74866	1298.07556	3.19627	919.91022	1528.92444	-139.77394	948.80499	1326.48511	-152.01396	953.60211	1476.8158	54.49792	641.32123	1246.76489	114.05665	479.72803	1296.92542	94.8105	278.46674	1288.32971	91.8549	69.11533	1328.11499	47.05187	35.3212	1360.20569	238.85114	36.76843	1368.5498	-89.90431	626.08002	1569.25623	-103.60713	445.8367	1545.69751	-255.61946	320.59409	1535.92322	-408.67831	173.65257	1480.86267	-451.15021	185.5892	1422.99866	-357.19223	36.21747	1460.67822	-122.05411	1661.09644	1388.59204	NaN	NaN	NaN	NaN	NaN	NaN	NaN	NaN	NaN	NaN	NaN	NaN	NaN	NaN	NaN	NaN	NaN	NaN	NaN	NaN	NaN
114	1.13	-16.15268	1617.97046	1336.10693	-15.32438	1627.37573	1468.93518	-130.87607	1548.12793	1345.41846	-125.68159	1557.72412	1475.86731	-130.1423	1393.41553	1400.1355	-132.75026	1083.46899	1400.71375	0.52357	1333.83484	1404.4458	63.64409	1174.47131	1400.34741	-162.90688	1211.94543	1491.15027	-44.5091	1367.57239	1245.56506	-74.59637	1170.93652	1173.5835	-92.77794	1048.65295	1161.69128	-104.92622	918.21381	1155.79749	-130.06474	797.82428	1179.40417	-143.36244	812.9635	1124.84851	-191.56134	736.00629	1139.36646	-58.83056	1350.76379	1563.1178	-40.77241	1134.96533	1645.19165	-9.41713	1029.50916	1665.92566	55.50201	910.5166	1672.35034	123.3004	837.58167	1639.13843	94.55343	819.41559	1681.32043	149.9633	770.64844	1673.91711	42.78042	933.97046	1297.57129	17.81447	920.2594	1527.73242	-125.11597	950.31006	1326.4325	-137.53517	953.242	1476.67444	69.80334	643.0744	1246.65918	125.16998	479.28308	1297.19531	101.71555	278.29382	1288.77686	92.16222	69.63193	1328.43298	47.17777	35.59819	1360.3689	239.31099	36.29062	1368.02759	-68.90497	623.758	1569.24524	-77.35458	443.62152	1546.4696	-231.24606	322.52353	1536.41785	-387.8779	179.04854	1482.94116	-428.43674	198.04805	1425.11694	-351.76682	39.15476	1458.776	-109.10275	1661.89209	1388.27747	NaN	NaN	NaN	NaN	NaN	NaN	NaN	NaN	NaN	NaN	NaN	NaN	NaN	NaN	NaN	NaN	NaN	NaN	NaN	NaN	NaN
